<svg version="1.1" id="Layer_1" xmlns="http://www.w3.org/2000/svg" xmlns:xlink="http://www.w3.org/1999/xlink" x="0px" y="0px"
	 width="100%" viewBox="0 0 250 250" enable-background="new 0 0 250 250" xml:space="preserve">
<path fill="#FFFFFF" opacity="1.000000" stroke="none" 
	d="
M172.000000,251.000000 
	C114.666672,251.000000 57.833340,251.000000 1.000008,251.000000 
	C1.000005,167.666672 1.000005,84.333351 1.000003,1.000019 
	C84.333321,1.000013 167.666641,1.000013 250.999969,1.000006 
	C250.999969,84.333313 250.999969,167.666626 250.999985,250.999969 
	C224.833328,251.000000 198.666672,251.000000 172.000000,251.000000 
M74.900101,208.984940 
	C109.277077,208.935471 143.654053,208.886017 178.953476,208.988449 
	C195.603577,208.988449 212.253693,208.988449 228.836487,208.988449 
	C228.836487,197.884644 228.836487,187.457443 228.984924,176.099518 
	C228.984924,131.859695 228.984924,87.619865 228.984924,43.347221 
	C160.079208,43.347221 91.606216,43.347221 23.000000,43.347221 
	C23.000000,57.172932 22.983955,70.651779 23.003237,84.130569 
	C23.047533,115.097031 23.109037,146.063477 23.011555,177.952515 
	C23.011555,188.177383 23.011555,198.402252 23.011555,208.836533 
	C40.265484,208.836533 57.117363,208.836533 74.900101,208.984940 
z"/>
<path fill="#252525" opacity="1.000000" stroke="none" 
	d="
M23.163559,177.029922 
	C23.109037,146.063477 23.047533,115.097031 23.003237,84.130569 
	C22.983955,70.651779 23.000000,57.172932 23.000000,43.347221 
	C91.606216,43.347221 160.079208,43.347221 228.984924,43.347221 
	C228.984924,87.619865 228.984924,131.859695 228.452576,176.554962 
	C159.667999,177.016922 91.415779,177.023422 23.163559,177.029922 
z"/>
<path fill="#000000" opacity="1.000000" stroke="none" 
	d="
M23.087557,177.491211 
	C91.415779,177.023422 159.667999,177.016922 228.378357,177.020325 
	C228.836487,187.457443 228.836487,197.884644 228.836487,208.988449 
	C212.253693,208.988449 195.603577,208.988449 178.482086,208.454437 
	C178.010712,201.478958 178.010712,195.037521 178.010712,188.453064 
	C143.014359,188.453064 108.686546,188.453064 73.969246,188.453064 
	C73.969246,195.546616 73.969246,202.191574 73.969246,208.836533 
	C57.117363,208.836533 40.265484,208.836533 23.011555,208.836533 
	C23.011555,198.402252 23.011555,188.177383 23.087557,177.491211 
z"/>
<path fill="#252525" opacity="1.000000" stroke="none" 
	d="
M74.434677,208.910736 
	C73.969246,202.191574 73.969246,195.546616 73.969246,188.453064 
	C108.686546,188.453064 143.014359,188.453064 178.010712,188.453064 
	C178.010712,195.037521 178.010712,201.478958 178.020874,208.378479 
	C143.654053,208.886017 109.277077,208.935471 74.434677,208.910736 
z"/>
</svg>